<svg width="114" height="100" viewBox="0 0 114 100" fill="none" xmlns="http://www.w3.org/2000/svg">
<path fill-rule="evenodd" clip-rule="evenodd" d="M27.2736 97.9233C10.9209 88.0895 0 70.3063 0 50.0003C0 38.5724 3.45916 27.9445 9.39701 19.082C10.8047 30.2764 15.6263 41.1281 23.8577 49.9984H23.8558L23.9306 50.0743C24.4641 50.6466 25.0075 51.213 25.5686 51.7678C26.1297 52.3225 26.7026 52.8597 27.2815 53.3872L46.0637 71.9569C49.1094 74.9682 50.6431 78.6315 50.6431 82.8904V84.4788C50.6431 90.2502 47.6938 95.2021 42.5888 98.0011C37.6727 100.697 32.103 100.66 27.2736 97.9252V97.9233Z" fill="#105D5D"/>
<path fill-rule="evenodd" clip-rule="evenodd" d="M23.8577 49.9965C15.6262 41.1262 10.8047 30.2745 9.39697 19.0801C14.0118 12.1953 20.1229 6.37528 27.2716 2.07545C32.099 -0.659395 37.6707 -0.698325 42.5868 1.99953C47.6918 4.79861 50.6411 9.75052 50.6411 15.5219V17.1103C50.6411 21.3653 49.1093 25.0267 46.0676 28.0379L23.8577 49.9965V49.9965Z" fill="#003636"/>
<path fill-rule="evenodd" clip-rule="evenodd" d="M86.1285 2.07532C102.479 11.9091 113.402 29.6923 113.402 50.0002C113.402 61.4282 109.943 72.0561 104.005 80.9185C102.597 69.7242 97.7759 58.8724 89.5444 50.0022H89.5463L89.4715 49.9263C88.938 49.354 88.3946 48.7876 87.8335 48.2328C87.2724 47.678 86.6995 47.1408 86.1206 46.6133L67.3384 28.0436C64.2927 25.0324 62.759 21.3691 62.759 17.1101V15.5218C62.759 9.75039 65.7083 4.79848 70.8133 1.9994C75.7294 -0.696505 81.2991 -0.659522 86.1285 2.07532V2.07532Z" fill="#08D777"/>
<path fill-rule="evenodd" clip-rule="evenodd" d="M89.5443 50.0021C97.7758 58.8723 102.597 69.7241 104.005 80.9184C99.3902 87.8032 93.2791 93.6233 86.1305 97.9231C81.303 100.658 75.7313 100.697 70.8153 97.999C65.7102 95.1999 62.761 90.248 62.761 84.4766V82.8883C62.761 78.6332 64.2927 74.9719 67.3345 71.9606L89.5443 50.0021Z" fill="#00944F"/>
</svg>
